<svg width="22" height="24" viewBox="0 0 22 24" fill="none" xmlns="http://www.w3.org/2000/svg">
<path fill-rule="evenodd" clip-rule="evenodd" d="M6.25974 7.44873C6.13981 7.46262 5.40306 7.57371 5.19746 8.00421C4.97473 8.49025 5.47076 9.58793 6.63584 10.6017C6.70437 10.6711 6.73864 10.7822 6.70437 10.8655C6.48164 11.4349 6.90998 12.2681 7.80092 13.0458C8.14359 13.3235 8.5034 13.5735 8.8632 13.7679C8.88034 13.7818 8.89747 13.7818 8.89747 13.7957C9.68562 14.2123 10.4738 14.4345 11.022 14.3234C11.0734 14.3095 11.142 14.3095 11.1934 14.3234C11.7416 14.4345 12.5298 14.2261 13.3179 13.7957C13.3179 13.7818 13.3351 13.7818 13.3522 13.7679C13.712 13.5735 14.0718 13.3235 14.4145 13.0458C15.3054 12.2681 15.7338 11.4349 15.511 10.8655C15.4768 10.7822 15.511 10.685 15.5796 10.6017C16.6076 9.67125 17.0539 8.65689 16.8312 8.14307C16.6084 7.62926 15.7346 7.4765 15.5804 7.44873H6.25974Z" fill="#FDD7AD"/>
<path fill-rule="evenodd" clip-rule="evenodd" d="M19.5629 6.71803C20.2095 6.71803 20.74 6.28211 20.74 5.7337V5.69152C20.74 5.24154 20.3753 4.86187 19.8945 4.74938V2.4573C19.8945 2.44324 19.8945 2.44324 19.8945 2.42918V2.41512L19.8779 2.40105V2.38699V2.37293L19.8613 2.35887V2.34481V2.33075L19.8448 2.31668C19.8448 2.31668 19.8448 2.30262 19.8282 2.28856C19.8116 2.26044 19.7784 2.24637 19.7453 2.21825H19.7287L19.7121 2.20419H19.6956C19.679 2.19013 19.6624 2.19013 19.6458 2.19013L11.2901 0.0105464C11.2238 -0.00351545 11.1575 -0.00351545 11.0912 0.0105464L2.71891 2.19013C2.58628 2.23231 2.48681 2.33075 2.48681 2.4573C2.48681 2.5698 2.58628 2.68229 2.71891 2.72448L6.33308 3.65256V6.99927C5.90203 7.0977 5.12283 7.36487 4.85757 8.01172C4.55916 8.71481 4.97362 9.61477 6.06782 10.6835C5.88545 11.4287 6.34966 12.3849 7.32781 13.2568C7.60965 13.5239 7.9578 13.7771 8.32253 14.002C8.25622 14.677 8.04069 15.1551 7.62622 15.4785C7.57649 15.5207 7.51017 15.5629 7.44386 15.6051C6.99623 15.6613 6.54861 15.7457 6.11756 15.8582C6.10098 15.8582 6.0844 15.8582 6.06782 15.8723C2.55313 16.8004 0 19.5846 0 22.8469V23.7188C0 23.8734 0.132629 24 0.314995 24H9.26752H12.7325H21.6684C21.8508 24 22 23.8734 22 23.7188V22.8469C22 19.5846 19.4469 16.8004 15.9322 15.8723C15.9156 15.8582 15.8824 15.8582 15.8659 15.8582C15.4348 15.7457 14.9872 15.6613 14.5396 15.6051C14.1417 15.352 13.7604 14.9583 13.6609 14.002C14.0256 13.7771 14.3738 13.5239 14.6556 13.2568C15.6338 12.3849 16.098 11.4428 15.9156 10.6835C17.159 9.51633 17.6398 8.56013 17.3414 7.85704C17.0927 7.29457 16.4295 7.06958 16.0482 6.98521V3.65256L19.2479 2.82291V4.74938C18.7506 4.86187 18.4024 5.24154 18.4024 5.69152V5.7337C18.4024 6.28211 18.9164 6.71803 19.5629 6.71803ZM8.93595 14.3395C9.48304 14.5926 10.0633 14.7614 10.6104 14.7614C10.743 14.7614 10.8591 14.7473 10.9917 14.7333C11.6383 14.8458 12.3677 14.663 13.0475 14.3395C13.1304 14.8176 13.2962 15.2254 13.5614 15.5489H13.5283C13.4288 15.5348 13.3293 15.577 13.2796 15.6332L10.9917 17.5597L8.70384 15.6192C8.63753 15.5629 8.53806 15.5348 8.43858 15.5489H8.422C8.68726 15.2254 8.85305 14.8176 8.93595 14.3395ZM8.85305 13.6505C8.85305 13.6364 8.83647 13.6364 8.81989 13.6224C8.47174 13.4255 8.12359 13.1724 7.79201 12.8912C6.92992 12.1037 6.51545 11.26 6.73097 10.6835C6.76413 10.5991 6.73097 10.5007 6.66466 10.4163C5.66993 9.47415 5.25546 8.71481 5.47099 8.19452C5.68651 7.67423 6.53203 7.51955 6.68124 7.49143H15.7001C15.8161 7.50549 16.529 7.61799 16.728 8.0539C16.9435 8.54607 16.4461 9.38978 15.3188 10.4163C15.2524 10.4866 15.2193 10.5991 15.2524 10.6835C15.468 11.26 15.0535 12.1037 14.1914 12.8912C13.8598 13.1724 13.5117 13.4255 13.1635 13.6224C13.1469 13.6364 13.1304 13.6364 13.1304 13.6505C12.3677 14.0724 11.6051 14.2973 11.0746 14.1849C11.0249 14.1708 10.9586 14.1708 10.9088 14.1849C10.3783 14.2973 9.61567 14.0864 8.85305 13.6505ZM13.6443 16.0973C14.2411 16.1113 14.8214 16.1816 15.3685 16.3082L13.8267 19.5846L11.4891 17.9394L13.6443 16.0973ZM15.9985 16.4629C19.0987 17.3909 21.3534 19.9221 21.3534 22.8469V23.4516H12.9812L12.2849 20.9345L13.3956 20.0064L13.7604 20.2596C13.8267 20.3017 13.893 20.3158 13.9759 20.3158C13.9925 20.3158 14.0256 20.3158 14.0422 20.3158C14.1583 20.2877 14.2411 20.2314 14.2743 20.1471L15.9985 16.4629ZM12.318 23.4516H9.68199L10.312 21.1314H11.6714L12.318 23.4516ZM9.00226 23.4516H0.64657V22.8469C0.64657 19.9221 2.8847 17.3909 6.00151 16.4629L7.7257 20.1471C7.75885 20.2314 7.84175 20.2877 7.94122 20.3158C7.97438 20.3158 7.99096 20.3158 8.02411 20.3158C8.10701 20.3158 8.17332 20.3017 8.23964 20.2596L8.58779 20.0064L9.69857 20.9345L9.00226 23.4516ZM6.6315 16.3082C7.1786 16.1816 7.75885 16.1113 8.33911 16.0973L10.5109 17.9394L8.15674 19.5846L6.6315 16.3082ZM10.9917 18.305L12.8983 19.6408L11.8041 20.583H10.1959L9.10173 19.6408L10.9917 18.305ZM6.97965 3.8213L11.0912 4.89C11.1243 4.90406 11.1575 4.90406 11.1907 4.90406C11.2238 4.90406 11.257 4.90406 11.2901 4.89L15.4017 3.8213V6.94302H6.97965V3.8213ZM6.76413 3.18852H6.73097L3.92916 2.4573L11.1907 0.573019L18.4521 2.4573L15.6503 3.18852H15.6172L11.1907 4.34158L6.76413 3.18852ZM19.5629 5.2556C19.8448 5.2556 20.0769 5.45247 20.0769 5.69152V5.7337C20.0769 5.97276 19.8448 6.16962 19.5629 6.16962C19.2811 6.16962 19.049 5.97276 19.049 5.7337V5.69152C19.049 5.45247 19.2811 5.2556 19.5629 5.2556Z" fill="black"/>
<path fill-rule="evenodd" clip-rule="evenodd" d="M14.2741 20.1471C14.241 20.2315 14.1581 20.2877 14.0586 20.3158C14.0255 20.3158 14.0089 20.3158 13.9757 20.3158C13.8928 20.3158 13.8265 20.3018 13.7602 20.2596L13.412 20.0065L12.3013 20.9345L12.9976 23.4516H21.3533V22.847C21.3533 19.9221 19.1151 17.391 15.9983 16.4629L14.2741 20.1471Z" fill="#545859"/>
<path fill-rule="evenodd" clip-rule="evenodd" d="M13.8434 19.585L15.3687 16.3086C14.8216 16.182 14.2413 16.1117 13.6611 16.0977L11.4893 17.9398L13.8434 19.585Z" fill="#CCCCCC"/>
<path fill-rule="evenodd" clip-rule="evenodd" d="M11.0087 17.56L13.2965 15.6195C13.3629 15.5632 13.4623 15.5351 13.5618 15.5492H13.5784C13.3131 15.2257 13.1473 14.8179 13.0644 14.3398C12.5173 14.593 11.9371 14.7617 11.39 14.7617C11.2574 14.7617 11.1413 14.7476 11.0087 14.7336C10.3621 14.8461 9.63263 14.6633 8.95291 14.3398C8.87001 14.8179 8.70422 15.2257 8.43896 15.5492H8.47212C8.57159 15.5351 8.67107 15.5773 8.7208 15.6335L11.0087 17.56Z" fill="#FDDFBC"/>
<path fill-rule="evenodd" clip-rule="evenodd" d="M10.5113 17.9398L8.35603 16.0977C7.75919 16.1117 7.17893 16.182 6.63184 16.3086L8.17366 19.585L10.5113 17.9398Z" fill="#CCCCCC"/>
<path fill-rule="evenodd" clip-rule="evenodd" d="M11.0086 18.3047L9.10205 19.6406L10.1962 20.5827H11.8044L12.8986 19.6406L11.0086 18.3047Z" fill="#2C3033"/>
<path fill-rule="evenodd" clip-rule="evenodd" d="M11.6877 21.1309H10.3282L9.68164 23.4511H12.3177L11.6877 21.1309Z" fill="#2C3033"/>
<path fill-rule="evenodd" clip-rule="evenodd" d="M9.01826 23.4516L9.71457 20.9345L8.6038 20.0065L8.23906 20.2596C8.17275 20.3018 8.10643 20.3158 8.02354 20.3158C8.00696 20.3158 7.9738 20.3158 7.95722 20.3158C7.84117 20.2877 7.75828 20.2315 7.72512 20.1471L6.00093 16.4629C2.90071 17.391 0.645996 19.9221 0.645996 22.847V23.4516H9.01826Z" fill="#545859"/>
<path fill-rule="evenodd" clip-rule="evenodd" d="M6.98682 6.95766H15.4088V3.83594L11.2973 4.90464C11.2641 4.9187 11.231 4.9187 11.1978 4.9187C11.1647 4.9187 11.1315 4.9187 11.0983 4.90464L6.98682 3.83594V6.95766Z" fill="#545859"/>
<path fill-rule="evenodd" clip-rule="evenodd" d="M6.75586 3.18874L11.1824 4.34181L15.6089 3.18874H15.6421L18.4439 2.45753L11.1824 0.573242L3.9209 2.45753L6.72271 3.18874H6.75586Z" fill="#2C3033"/>
<path fill-rule="evenodd" clip-rule="evenodd" d="M19.0488 5.69031C19.0488 5.45126 19.2809 5.25439 19.5627 5.25439C19.8446 5.25439 20.0767 5.45126 20.0767 5.69031V5.7325C20.0767 5.97155 19.8446 6.16841 19.5627 6.16841C19.2809 6.16841 19.0488 5.97155 19.0488 5.7325V5.69031Z" fill="#FFC738"/>
</svg>
